<?xml version="1.0" encoding="utf-8" ?>
<svg baseProfile="full" height="200" version="1.1" width="200" xmlns="http://www.w3.org/2000/svg" xmlns:ev="http://www.w3.org/2001/xml-events" xmlns:xlink="http://www.w3.org/1999/xlink"><defs /><polygon fill="#1B3D8B" points="98,34 97,35 96,35 95,36 94,36 93,37 92,37 91,38 90,38 89,39 88,39 87,40 86,40 85,41 84,41 83,42 82,42 81,43 80,43 79,44 78,44 77,45 76,45 75,46 74,46 73,47 72,47 71,48 70,48 69,49 68,49 67,50 66,50 65,51 64,51 63,52 62,52 61,53 60,53 59,54 58,54 57,55 56,55 55,56 54,56 54,76 55,77 56,77 57,78 58,78 59,79 60,79 61,80 62,80 63,81 64,81 66,83 65,84 64,84 63,85 62,85 61,86 60,86 59,87 58,87 57,88 56,88 55,89 54,89 54,109 55,110 56,110 57,111 59,111 61,113 62,113 63,114 64,114 66,116 65,117 64,117 63,118 62,118 61,119 60,119 59,120 58,120 57,121 56,121 55,122 54,122 54,142 55,143 56,143 57,144 58,144 59,145 60,145 61,146 63,146 65,148 66,148 67,149 68,149 69,150 70,150 71,151 72,151 73,152 74,152 75,153 76,153 77,154 79,154 81,156 82,156 83,157 84,157 85,158 86,158 87,159 88,159 89,160 90,160 91,161 92,161 93,162 95,162 97,164 98,164 99,165 100,165 101,164 102,164 103,163 104,163 105,162 106,162 107,161 108,161 109,160 110,160 111,159 112,159 113,158 114,158 115,157 116,157 117,156 118,156 119,155 120,155 121,154 122,154 123,153 124,153 125,152 126,152 127,151 128,151 129,150 130,150 131,149 132,149 133,148 134,148 135,147 136,147 137,146 138,146 139,145 140,145 141,144 142,144 143,143 144,143 145,142 145,122 144,122 142,120 140,120 139,119 138,119 137,118 136,118 134,116 134,115 135,114 136,114 137,113 138,113 139,112 140,112 141,111 142,111 143,110 144,110 145,109 145,89 144,89 143,88 142,88 140,86 138,86 137,85 136,85 134,83 134,82 135,81 136,81 137,80 138,80 139,79 140,79 141,78 142,78 143,77 144,77 145,76 145,56 144,56 142,54 140,54 138,52 136,52 135,51 134,51 133,50 132,50 131,49 130,49 129,48 128,48 126,46 124,46 122,44 120,44 119,43 118,43 117,42 116,42 115,41 114,41 113,40 112,40 110,38 108,38 106,36 104,36 103,35 102,35 101,34" /></svg>